<svg width="16" height="16" viewBox="0 0 16 16" fill="none" xmlns="http://www.w3.org/2000/svg">
<g clip-path="url(#clip0_6_5)">
<rect width="16" height="16" fill="white"/>
<rect width="16" height="16" fill="black"/>
<path d="M5.968 5.388C6.472 5.388 6.928 5.492 7.336 5.7C7.744 5.9 8.064 6.212 8.296 6.636C8.536 7.06 8.656 7.608 8.656 8.28V12H6.376V8.652C6.376 8.188 6.28 7.852 6.088 7.644C5.904 7.428 5.644 7.32 5.308 7.32C5.068 7.32 4.848 7.376 4.648 7.488C4.448 7.592 4.292 7.756 4.18 7.98C4.068 8.204 4.012 8.496 4.012 8.856V12H1.732V5.496H3.904V7.344L3.484 6.804C3.732 6.332 4.072 5.98 4.504 5.748C4.936 5.508 5.424 5.388 5.968 5.388ZM9.99147 12V5.568C9.99147 4.784 10.2235 4.16 10.6875 3.696C11.1595 3.224 11.8315 2.988 12.7035 2.988C12.9835 2.988 13.2595 3.016 13.5315 3.072C13.8035 3.128 14.0315 3.212 14.2155 3.324L13.6515 4.932C13.5555 4.876 13.4475 4.832 13.3275 4.8C13.2075 4.76 13.0875 4.74 12.9675 4.74C12.7275 4.74 12.5395 4.812 12.4035 4.956C12.2755 5.092 12.2115 5.304 12.2115 5.592V6.06L12.2715 7.008V12H9.99147ZM9.04347 7.44V5.736H13.7595V7.44H9.04347Z" fill="white"/>
</g>
<defs>
<clipPath id="clip0_6_5">
<rect width="16" height="16" fill="white"/>
</clipPath>
</defs>
</svg>
