<svg width="75" height="16" viewBox="0 0 75 16" fill="none" xmlns="http://www.w3.org/2000/svg">
<path d="M5.09888 4.83011C6.0673 2.84455 8.64322 1.23494 10.8524 1.23494H40.064C42.2731 1.23494 43.2789 2.84455 42.3105 4.83012L39.0797 11.4542C38.1113 13.4398 35.5354 15.0494 33.3262 15.0494H4.11459C1.90545 15.0494 0.899653 13.4398 1.86808 11.4542L5.09888 4.83011Z" fill="black"/>
<path d="M12.968 5.388C13.472 5.388 13.928 5.492 14.336 5.7C14.744 5.9 15.064 6.212 15.296 6.636C15.536 7.06 15.656 7.608 15.656 8.28V12H13.376V8.652C13.376 8.188 13.28 7.852 13.088 7.644C12.904 7.428 12.644 7.32 12.308 7.32C12.068 7.32 11.848 7.376 11.648 7.488C11.448 7.592 11.292 7.756 11.18 7.98C11.068 8.204 11.012 8.496 11.012 8.856V12H8.732V5.496H10.904V7.344L10.484 6.804C10.732 6.332 11.072 5.98 11.504 5.748C11.936 5.508 12.424 5.388 12.968 5.388ZM20.0735 12.108C19.3615 12.108 18.7295 11.964 18.1775 11.676C17.6255 11.388 17.1895 10.992 16.8695 10.488C16.5575 9.976 16.4015 9.392 16.4015 8.736C16.4015 8.08 16.5575 7.5 16.8695 6.996C17.1895 6.492 17.6255 6.1 18.1775 5.82C18.7295 5.532 19.3615 5.388 20.0735 5.388C20.7855 5.388 21.4175 5.532 21.9695 5.82C22.5295 6.1 22.9655 6.492 23.2775 6.996C23.5895 7.5 23.7455 8.08 23.7455 8.736C23.7455 9.392 23.5895 9.976 23.2775 10.488C22.9655 10.992 22.5295 11.388 21.9695 11.676C21.4175 11.964 20.7855 12.108 20.0735 12.108ZM20.0735 10.296C20.3375 10.296 20.5695 10.236 20.7695 10.116C20.9775 9.996 21.1415 9.82 21.2615 9.588C21.3815 9.348 21.4415 9.064 21.4415 8.736C21.4415 8.408 21.3815 8.132 21.2615 7.908C21.1415 7.676 20.9775 7.5 20.7695 7.38C20.5695 7.26 20.3375 7.2 20.0735 7.2C19.8175 7.2 19.5855 7.26 19.3775 7.38C19.1775 7.5 19.0135 7.676 18.8855 7.908C18.7655 8.132 18.7055 8.408 18.7055 8.736C18.7055 9.064 18.7655 9.348 18.8855 9.588C19.0135 9.82 19.1775 9.996 19.3775 10.116C19.5855 10.236 19.8175 10.296 20.0735 10.296ZM27.3457 12.108C26.5137 12.108 25.8657 11.904 25.4017 11.496C24.9377 11.08 24.7057 10.456 24.7057 9.624V4.044H26.9857V9.6C26.9857 9.832 27.0497 10.016 27.1777 10.152C27.3057 10.28 27.4697 10.344 27.6697 10.344C27.9417 10.344 28.1737 10.276 28.3657 10.14L28.9297 11.736C28.7377 11.864 28.5017 11.956 28.2217 12.012C27.9417 12.076 27.6497 12.108 27.3457 12.108ZM23.7577 7.44V5.736H28.4737V7.44H23.7577ZM32.6694 12.108C31.9014 12.108 31.2294 11.964 30.6534 11.676C30.0854 11.38 29.6414 10.98 29.3214 10.476C29.0094 9.964 28.8534 9.384 28.8534 8.736C28.8534 8.088 29.0054 7.512 29.3094 7.008C29.6214 6.496 30.0494 6.1 30.5934 5.82C31.1374 5.532 31.7494 5.388 32.4294 5.388C33.0694 5.388 33.6534 5.52 34.1814 5.784C34.7094 6.04 35.1294 6.42 35.4414 6.924C35.7534 7.428 35.9094 8.04 35.9094 8.76C35.9094 8.84 35.9054 8.932 35.8974 9.036C35.8894 9.14 35.8814 9.236 35.8734 9.324H30.7254V8.124H34.6614L33.7974 8.46C33.8054 8.164 33.7494 7.908 33.6294 7.692C33.5174 7.476 33.3574 7.308 33.1494 7.188C32.9494 7.068 32.7134 7.008 32.4414 7.008C32.1694 7.008 31.9294 7.068 31.7214 7.188C31.5214 7.308 31.3654 7.48 31.2534 7.704C31.1414 7.92 31.0854 8.176 31.0854 8.472V8.82C31.0854 9.14 31.1494 9.416 31.2774 9.648C31.4134 9.88 31.6054 10.06 31.8534 10.188C32.1014 10.308 32.3974 10.368 32.7414 10.368C33.0614 10.368 33.3334 10.324 33.5574 10.236C33.7894 10.14 34.0174 9.996 34.2414 9.804L35.4414 11.052C35.1294 11.396 34.7454 11.66 34.2894 11.844C33.8334 12.02 33.2934 12.108 32.6694 12.108Z" fill="white"/>
<path d="M42.996 12V5.568C42.996 4.784 43.228 4.16 43.692 3.696C44.164 3.224 44.836 2.988 45.708 2.988C45.988 2.988 46.264 3.016 46.536 3.072C46.808 3.128 47.036 3.212 47.22 3.324L46.656 4.932C46.56 4.876 46.452 4.832 46.332 4.8C46.212 4.76 46.092 4.74 45.972 4.74C45.732 4.74 45.544 4.812 45.408 4.956C45.28 5.092 45.216 5.304 45.216 5.592V6.06L45.276 7.008V12H42.996ZM42.048 7.44V5.736H46.764V7.44H42.048ZM50.4407 12.108C49.7287 12.108 49.0967 11.964 48.5447 11.676C47.9927 11.388 47.5567 10.992 47.2367 10.488C46.9247 9.976 46.7687 9.392 46.7687 8.736C46.7687 8.08 46.9247 7.5 47.2367 6.996C47.5567 6.492 47.9927 6.1 48.5447 5.82C49.0967 5.532 49.7287 5.388 50.4407 5.388C51.1527 5.388 51.7847 5.532 52.3367 5.82C52.8967 6.1 53.3327 6.492 53.6447 6.996C53.9567 7.5 54.1127 8.08 54.1127 8.736C54.1127 9.392 53.9567 9.976 53.6447 10.488C53.3327 10.992 52.8967 11.388 52.3367 11.676C51.7847 11.964 51.1527 12.108 50.4407 12.108ZM50.4407 10.296C50.7047 10.296 50.9367 10.236 51.1367 10.116C51.3447 9.996 51.5087 9.82 51.6287 9.588C51.7487 9.348 51.8087 9.064 51.8087 8.736C51.8087 8.408 51.7487 8.132 51.6287 7.908C51.5087 7.676 51.3447 7.5 51.1367 7.38C50.9367 7.26 50.7047 7.2 50.4407 7.2C50.1847 7.2 49.9527 7.26 49.7447 7.38C49.5447 7.5 49.3807 7.676 49.2527 7.908C49.1327 8.132 49.0727 8.408 49.0727 8.736C49.0727 9.064 49.1327 9.348 49.2527 9.588C49.3807 9.82 49.5447 9.996 49.7447 10.116C49.9527 10.236 50.1847 10.296 50.4407 10.296ZM54.8089 12V5.496H56.9809V7.392L56.6569 6.852C56.8489 6.364 57.1609 6 57.5929 5.76C58.0249 5.512 58.5489 5.388 59.1649 5.388V7.44C59.0609 7.424 58.9689 7.416 58.8889 7.416C58.8169 7.408 58.7369 7.404 58.6489 7.404C58.1849 7.404 57.8089 7.532 57.5209 7.788C57.2329 8.036 57.0889 8.444 57.0889 9.012V12H54.8089ZM62.8672 14.436C62.2432 14.436 61.6472 14.364 61.0792 14.22C60.5192 14.076 60.0392 13.864 59.6392 13.584L60.4672 11.988C60.7392 12.204 61.0752 12.372 61.4752 12.492C61.8832 12.62 62.2792 12.684 62.6632 12.684C63.2792 12.684 63.7232 12.548 63.9952 12.276C64.2672 12.012 64.4032 11.624 64.4032 11.112V10.344L64.5232 8.52L64.5112 6.684V5.496H66.6832V10.812C66.6832 12.044 66.3512 12.956 65.6872 13.548C65.0232 14.14 64.0832 14.436 62.8672 14.436ZM62.4712 11.664C61.8952 11.664 61.3632 11.536 60.8752 11.28C60.3952 11.016 60.0072 10.652 59.7112 10.188C59.4232 9.716 59.2792 9.16 59.2792 8.52C59.2792 7.88 59.4232 7.328 59.7112 6.864C60.0072 6.392 60.3952 6.028 60.8752 5.772C61.3632 5.516 61.8952 5.388 62.4712 5.388C63.0232 5.388 63.4952 5.5 63.8872 5.724C64.2792 5.94 64.5752 6.28 64.7752 6.744C64.9832 7.208 65.0872 7.8 65.0872 8.52C65.0872 9.24 64.9832 9.832 64.7752 10.296C64.5752 10.76 64.2792 11.104 63.8872 11.328C63.4952 11.552 63.0232 11.664 62.4712 11.664ZM63.0112 9.852C63.2832 9.852 63.5232 9.796 63.7312 9.684C63.9472 9.572 64.1152 9.416 64.2352 9.216C64.3632 9.016 64.4272 8.784 64.4272 8.52C64.4272 8.256 64.3632 8.024 64.2352 7.824C64.1152 7.624 63.9472 7.472 63.7312 7.368C63.5232 7.256 63.2832 7.2 63.0112 7.2C62.7392 7.2 62.4952 7.256 62.2792 7.368C62.0632 7.472 61.8912 7.624 61.7632 7.824C61.6432 8.024 61.5832 8.256 61.5832 8.52C61.5832 8.784 61.6432 9.016 61.7632 9.216C61.8912 9.416 62.0632 9.572 62.2792 9.684C62.4952 9.796 62.7392 9.852 63.0112 9.852ZM71.1961 12.108C70.4281 12.108 69.7561 11.964 69.1801 11.676C68.6121 11.38 68.1681 10.98 67.8481 10.476C67.5361 9.964 67.3801 9.384 67.3801 8.736C67.3801 8.088 67.5321 7.512 67.8361 7.008C68.1481 6.496 68.5761 6.1 69.1201 5.82C69.6641 5.532 70.2761 5.388 70.9561 5.388C71.5961 5.388 72.1801 5.52 72.7081 5.784C73.2361 6.04 73.6561 6.42 73.9681 6.924C74.2801 7.428 74.4361 8.04 74.4361 8.76C74.4361 8.84 74.4321 8.932 74.4241 9.036C74.4161 9.14 74.4081 9.236 74.4001 9.324H69.2521V8.124H73.1881L72.3241 8.46C72.3321 8.164 72.2761 7.908 72.1561 7.692C72.0441 7.476 71.8841 7.308 71.6761 7.188C71.4761 7.068 71.2401 7.008 70.9681 7.008C70.6961 7.008 70.4561 7.068 70.2481 7.188C70.0481 7.308 69.8921 7.48 69.7801 7.704C69.6681 7.92 69.6121 8.176 69.6121 8.472V8.82C69.6121 9.14 69.6761 9.416 69.8041 9.648C69.9401 9.88 70.1321 10.06 70.3801 10.188C70.6281 10.308 70.9241 10.368 71.2681 10.368C71.5881 10.368 71.8601 10.324 72.0841 10.236C72.3161 10.14 72.5441 9.996 72.7681 9.804L73.9681 11.052C73.6561 11.396 73.2721 11.66 72.8161 11.844C72.3601 12.02 71.8201 12.108 71.1961 12.108Z" fill="black"/>
</svg>
